<svg xmlns="http://www.w3.org/2000/svg" xmlns:xlink="http://www.w3.org/1999/xlink" preserveAspectRatio="xMidYMid" width="27" height="12.97" viewBox="0 0 27 12.97">
  <defs>
    <style>
      .cls-1 {
        fill: #fff;
        fill-rule: evenodd;
      }
    </style>
  </defs>
  <path d="M7.158,0.206 C6.840,-0.108 6.323,-0.108 6.005,0.206 L0.237,5.903 L0.062,6.162 L0.002,6.459 L-0.000,6.470 L-0.000,6.479 L0.062,6.778 L0.239,7.040 L6.004,12.734 C6.323,13.048 6.840,13.047 7.158,12.734 C7.475,12.420 7.476,11.909 7.158,11.595 L2.784,7.275 L26.183,7.275 C26.633,7.276 26.999,6.914 26.999,6.470 C26.999,6.027 26.633,5.665 26.183,5.665 L2.784,5.665 L7.158,1.345 C7.476,1.031 7.476,0.520 7.158,0.206 Z" class="cls-1"/>
</svg>
