<svg xmlns="http://www.w3.org/2000/svg" xmlns:xlink="http://www.w3.org/1999/xlink" preserveAspectRatio="xMidYMid" width="16" height="16" viewBox="0 0 16 16">
  <defs>
    <style>
      .cls-1 {
        fill: #303030;
        fill-rule: evenodd;
      }
    </style>
  </defs>
  <path d="M9.211,8.427 C8.867,8.814 8.733,8.957 8.443,9.167 C6.404,10.762 3.431,10.638 1.540,8.784 C-0.502,6.784 -0.514,3.531 1.515,1.519 C3.541,-0.495 6.840,-0.506 8.881,1.493 C10.807,3.379 10.927,6.383 9.229,8.408 L9.211,8.427 ZM7.963,2.404 C6.434,0.904 3.958,0.916 2.438,2.424 C0.916,3.933 0.925,6.374 2.456,7.872 C3.988,9.374 6.462,9.363 7.982,7.854 C9.502,6.344 9.495,3.905 7.963,2.404 ZM16.000,14.597 L14.687,15.999 L9.012,9.931 L9.958,8.995 L16.000,14.597 Z" class="cls-1"/>
</svg>
